<svg xmlns="http://www.w3.org/2000/svg" version="1.1" xmlns:xlink="http://www.w3.org/1999/xlink" xmlns:svgjs="http://svgjs.dev/svgjs" width="1000px" height="1000px"><svg id="SvgjsSvg1009" data-name="Layer 2" width="1000px" height="1000px" xmlns="http://www.w3.org/2000/svg" viewBox="0 0 176 176">
  <defs>
    <style>
      .cls-1 {
        fill: #fff669;
      }

      .cls-2 {
        fill: #0f47ff;
      }
    </style>
  </defs>
  <g id="SvgjsG1008" data-name="Layer 1">
    <circle class="cls-2" cx="88" cy="88" r="88"></circle>
    <g>
      <path class="cls-1" d="M64.13,112.47c-4.22,0-7.98-.94-11.27-2.81-3.29-1.87-5.84-4.63-7.67-8.28-1.82-3.65-2.74-8.09-2.74-13.32s.96-9.53,2.88-13.18c1.92-3.65,4.67-6.46,8.24-8.42,3.58-1.97,7.79-2.95,12.64-2.95,5.38,0,9.72.97,13.03,2.92,3.31,1.94,5.88,5.03,7.7,9.25l-11.45,4.54c-.62-2.45-1.73-4.22-3.31-5.33-1.58-1.1-3.55-1.66-5.9-1.66s-4.37.56-6.05,1.69c-1.68,1.13-2.95,2.78-3.82,4.97-.86,2.18-1.3,4.88-1.3,8.1s.44,6.17,1.33,8.42c.89,2.26,2.21,3.92,3.96,5,1.75,1.08,3.92,1.62,6.52,1.62,1.39,0,2.66-.17,3.82-.5,1.15-.34,2.16-.83,3.02-1.48.86-.65,1.54-1.46,2.02-2.45.48-.98.72-2.15.72-3.49v-.72h-10.87v-8.28h21.38v25.63h-8.42l-.94-11.16,2.02,1.73c-1.01,3.26-2.82,5.77-5.44,7.52-2.62,1.75-5.99,2.63-10.12,2.63Z"></path>
      <path class="cls-1" d="M136.2,64.23v9.58h-15.48v37.94h-12.38v-37.94h-15.55v-9.58h43.42Z"></path>
    </g>
  </g>
</svg><style>@media (prefers-color-scheme: light) { :root { filter: none; } }
@media (prefers-color-scheme: dark) { :root { filter: none; } }
</style></svg>