<?xml version="1.0" encoding="UTF-8"?>
<svg id="Layer_2" data-name="Layer 2" xmlns="http://www.w3.org/2000/svg" viewBox="0 0 501.73 176">
  <defs>
    <style>
      .cls-1 {
        fill: #141414;
      }

      .cls-2 {
        fill: #fff669;
      }

      .cls-3 {
        fill: #0f47ff;
      }
    </style>
  </defs>
  <g id="Layer_1-2" data-name="Layer 1">
    <g id="OG_wbg_rst" data-name="OG wbg rst">
      <circle class="cls-3" cx="88" cy="88" r="88"/>
      <g>
        <path class="cls-2" d="M64.13,112.47c-4.22,0-7.98-.94-11.27-2.81-3.29-1.87-5.84-4.63-7.67-8.28-1.82-3.65-2.74-8.09-2.74-13.32s.96-9.53,2.88-13.18c1.92-3.65,4.67-6.46,8.24-8.42,3.58-1.97,7.79-2.95,12.64-2.95,5.38,0,9.72.97,13.03,2.92,3.31,1.94,5.88,5.03,7.7,9.25l-11.45,4.54c-.62-2.45-1.73-4.22-3.31-5.33-1.58-1.1-3.55-1.66-5.9-1.66s-4.37.56-6.05,1.69c-1.68,1.13-2.95,2.78-3.82,4.97-.86,2.18-1.3,4.88-1.3,8.1s.44,6.17,1.33,8.42c.89,2.26,2.21,3.92,3.96,5,1.75,1.08,3.92,1.62,6.52,1.62,1.39,0,2.66-.17,3.82-.5,1.15-.34,2.16-.83,3.02-1.48.86-.65,1.54-1.46,2.02-2.45.48-.98.72-2.15.72-3.49v-.72h-10.87v-8.28h21.38v25.63h-8.42l-.94-11.16,2.02,1.73c-1.01,3.26-2.82,5.77-5.44,7.52-2.62,1.75-5.99,2.63-10.12,2.63Z"/>
        <path class="cls-2" d="M136.2,64.23v9.58h-15.48v37.94h-12.38v-37.94h-15.55v-9.58h43.42Z"/>
      </g>
      <g>
        <path class="cls-3" d="M226.26,77.08c-4.22,0-7.98-.94-11.27-2.81-3.29-1.87-5.84-4.63-7.67-8.28-1.83-3.65-2.74-8.09-2.74-13.32s.96-9.53,2.88-13.18c1.92-3.65,4.67-6.46,8.24-8.42,3.58-1.97,7.79-2.95,12.64-2.95,5.38,0,9.72.97,13.03,2.92,3.31,1.94,5.88,5.03,7.7,9.25l-11.45,4.54c-.62-2.45-1.73-4.22-3.31-5.33-1.58-1.1-3.55-1.66-5.9-1.66s-4.37.56-6.05,1.69c-1.68,1.13-2.95,2.78-3.82,4.97-.86,2.18-1.3,4.88-1.3,8.1s.44,6.17,1.33,8.42c.89,2.26,2.21,3.92,3.96,5,1.75,1.08,3.92,1.62,6.52,1.62,1.39,0,2.66-.17,3.82-.5,1.15-.34,2.16-.83,3.02-1.48.86-.65,1.54-1.46,2.02-2.45.48-.98.72-2.15.72-3.49v-.72h-10.87v-8.28h21.38v25.63h-8.42l-.94-11.16,2.02,1.73c-1.01,3.26-2.82,5.77-5.44,7.52-2.62,1.75-5.99,2.63-10.12,2.63Z"/>
        <path class="cls-3" d="M277.89,53.54c0-1.68-.47-3.01-1.4-4-.94-.98-2.2-1.48-3.78-1.48s-2.94.4-4.07,1.19-1.91,2.2-2.34,4.21l-10.37-2.45c.67-3.46,2.45-6.22,5.33-8.28,2.88-2.06,6.94-3.1,12.17-3.1,3.5,0,6.49.52,8.96,1.55,2.47,1.03,4.37,2.57,5.69,4.61,1.32,2.04,1.98,4.55,1.98,7.52v13.18c0,1.87.84,2.81,2.52,2.81.86,0,1.56-.1,2.09-.29l-.72,6.98c-1.44.67-3.19,1.01-5.26,1.01-1.87,0-3.53-.3-4.97-.9-1.44-.6-2.57-1.51-3.38-2.74-.82-1.22-1.22-2.77-1.22-4.64v-.43l1.37-.5c0,2.06-.61,3.79-1.84,5.18-1.22,1.39-2.81,2.42-4.75,3.1-1.94.67-3.97,1.01-6.08,1.01-2.45,0-4.58-.38-6.41-1.15-1.83-.77-3.23-1.88-4.21-3.35-.98-1.46-1.48-3.28-1.48-5.44,0-2.59.78-4.74,2.34-6.44,1.56-1.7,4.02-2.89,7.38-3.56l13.61-2.81-.07,6.48-6.91,1.44c-1.44.29-2.51.71-3.2,1.26-.7.55-1.04,1.38-1.04,2.48s.38,1.85,1.15,2.38c.77.53,1.68.79,2.74.79.82,0,1.59-.12,2.34-.36.74-.24,1.4-.61,1.98-1.12.58-.5,1.03-1.14,1.37-1.91.33-.77.5-1.68.5-2.74v-9.5Z"/>
        <path class="cls-3" d="M299.49,76.36v-36h10.94l.65,12.38-1.37-1.37c.48-2.59,1.33-4.75,2.56-6.48,1.22-1.73,2.76-3.04,4.61-3.92,1.85-.89,3.92-1.33,6.23-1.33,2.5,0,4.67.48,6.52,1.44,1.85.96,3.3,2.38,4.36,4.25,1.06,1.87,1.58,4.22,1.58,7.06v23.98h-12.24v-20.74c0-2.5-.48-4.22-1.44-5.18-.96-.96-2.18-1.44-3.67-1.44-1.15,0-2.23.28-3.24.83-1.01.55-1.8,1.43-2.38,2.63-.58,1.2-.86,2.81-.86,4.82v19.08h-12.24Z"/>
        <path class="cls-3" d="M357.37,77.08c-2.98,0-5.58-.73-7.81-2.2-2.23-1.46-3.96-3.59-5.18-6.37-1.22-2.78-1.84-6.12-1.84-10.01s.64-7.44,1.91-10.22c1.27-2.78,3.05-4.92,5.33-6.41,2.28-1.49,4.91-2.23,7.88-2.23,3.26,0,5.89,1,7.88,2.99,1.99,1.99,3.28,4.52,3.85,7.6l-1.15,1.51v-26.64h12.24v51.26h-10.94l-.79-12.24,1.44,1.08c-.29,2.4-1.02,4.49-2.2,6.26-1.18,1.78-2.66,3.16-4.46,4.14-1.8.98-3.85,1.48-6.16,1.48ZM361.62,68.08c1.39,0,2.58-.37,3.56-1.12.98-.74,1.74-1.86,2.27-3.35.53-1.49.79-3.31.79-5.47,0-2.02-.25-3.73-.76-5.15-.5-1.42-1.25-2.5-2.23-3.24-.98-.74-2.17-1.12-3.56-1.12-2.11,0-3.78.78-5,2.34-1.22,1.56-1.84,4.02-1.84,7.38s.6,5.82,1.8,7.38c1.2,1.56,2.86,2.34,4.97,2.34Z"/>
        <path class="cls-3" d="M389.27,76.36V25.1h12.24v21.82c1.05-2.4,2.57-4.21,4.54-5.44,1.97-1.22,4.25-1.84,6.84-1.84s4.67.48,6.52,1.44c1.85.96,3.3,2.38,4.36,4.25,1.06,1.87,1.58,4.22,1.58,7.06v23.98h-12.24v-20.59c0-2.59-.47-4.38-1.4-5.36-.94-.98-2.17-1.48-3.71-1.48-1.15,0-2.23.29-3.24.86-1.01.58-1.8,1.49-2.38,2.74-.58,1.25-.86,2.88-.86,4.9v18.94h-12.24Z"/>
        <path class="cls-3" d="M454,53.54c0-1.68-.47-3.01-1.4-4-.94-.98-2.2-1.48-3.78-1.48s-2.94.4-4.07,1.19-1.91,2.2-2.34,4.21l-10.37-2.45c.67-3.46,2.45-6.22,5.33-8.28,2.88-2.06,6.94-3.1,12.17-3.1,3.5,0,6.49.52,8.96,1.55,2.47,1.03,4.37,2.57,5.69,4.61,1.32,2.04,1.98,4.55,1.98,7.52v13.18c0,1.87.84,2.81,2.52,2.81.86,0,1.56-.1,2.09-.29l-.72,6.98c-1.44.67-3.19,1.01-5.26,1.01-1.87,0-3.53-.3-4.97-.9-1.44-.6-2.57-1.51-3.38-2.74-.82-1.22-1.22-2.77-1.22-4.64v-.43l1.37-.5c0,2.06-.61,3.79-1.84,5.18-1.22,1.39-2.81,2.42-4.75,3.1-1.94.67-3.97,1.01-6.08,1.01-2.45,0-4.58-.38-6.41-1.15-1.83-.77-3.23-1.88-4.21-3.35-.98-1.46-1.48-3.28-1.48-5.44,0-2.59.78-4.74,2.34-6.44,1.56-1.7,4.02-2.89,7.38-3.56l13.61-2.81-.07,6.48-6.91,1.44c-1.44.29-2.51.71-3.2,1.26-.7.55-1.04,1.38-1.04,2.48s.38,1.85,1.15,2.38c.77.53,1.68.79,2.74.79.82,0,1.59-.12,2.34-.36.74-.24,1.4-.61,1.98-1.12.58-.5,1.03-1.14,1.37-1.91.34-.77.5-1.68.5-2.74v-9.5Z"/>
        <path class="cls-3" d="M475.6,76.36v-36h10.8l.5,7.78c.91-2.69,2.27-4.78,4.07-6.26,1.8-1.49,4.09-2.23,6.88-2.23.91,0,1.69.07,2.34.22.65.14,1.16.34,1.55.58l-1.22,10.08c-.48-.19-1.09-.35-1.84-.47-.74-.12-1.64-.18-2.7-.18-1.44,0-2.78.31-4.03.94-1.25.62-2.25,1.55-2.99,2.77-.75,1.22-1.12,2.77-1.12,4.64v18.14h-12.24Z"/>
        <path class="cls-1" d="M246.57,96.84v9.58h-15.48v37.94h-12.38v-37.94h-15.55v-9.58h43.42Z"/>
        <path class="cls-1" d="M252.18,144.36v-51.26h12.24v21.82c1.06-2.4,2.57-4.21,4.54-5.44,1.97-1.22,4.25-1.84,6.84-1.84s4.67.48,6.52,1.44c1.85.96,3.3,2.38,4.36,4.25,1.06,1.87,1.58,4.22,1.58,7.06v23.98h-12.24v-20.59c0-2.59-.47-4.38-1.4-5.36-.94-.98-2.17-1.48-3.71-1.48-1.15,0-2.23.29-3.24.86-1.01.58-1.8,1.49-2.38,2.74-.58,1.25-.86,2.88-.86,4.9v18.94h-12.24Z"/>
        <path class="cls-1" d="M316.91,121.54c0-1.68-.47-3.01-1.4-4-.94-.98-2.2-1.48-3.78-1.48s-2.94.4-4.07,1.19c-1.13.79-1.91,2.2-2.34,4.21l-10.37-2.45c.67-3.46,2.45-6.22,5.33-8.28,2.88-2.06,6.94-3.1,12.17-3.1,3.5,0,6.49.52,8.96,1.55,2.47,1.03,4.37,2.57,5.69,4.61,1.32,2.04,1.98,4.55,1.98,7.52v13.18c0,1.87.84,2.81,2.52,2.81.86,0,1.56-.1,2.09-.29l-.72,6.98c-1.44.67-3.19,1.01-5.26,1.01-1.87,0-3.53-.3-4.97-.9-1.44-.6-2.57-1.51-3.38-2.74-.82-1.22-1.22-2.77-1.22-4.64v-.43l1.37-.5c0,2.06-.61,3.79-1.84,5.18-1.22,1.39-2.81,2.42-4.75,3.1-1.94.67-3.97,1.01-6.08,1.01-2.45,0-4.58-.38-6.41-1.15-1.82-.77-3.23-1.88-4.21-3.35-.98-1.46-1.48-3.28-1.48-5.44,0-2.59.78-4.74,2.34-6.44,1.56-1.7,4.02-2.89,7.38-3.56l13.61-2.81-.07,6.48-6.91,1.44c-1.44.29-2.51.71-3.2,1.26-.7.55-1.04,1.38-1.04,2.48s.38,1.85,1.15,2.38c.77.53,1.68.79,2.74.79.82,0,1.6-.12,2.34-.36.74-.24,1.4-.61,1.98-1.12.58-.5,1.03-1.14,1.37-1.91.33-.77.5-1.68.5-2.74v-9.5Z"/>
        <path class="cls-1" d="M350.75,93.1v51.26h-12.24v-51.26h12.24ZM378.04,108.36l-17.28,18.43-2.3.65-10.3,11.52-.07-12.53,16.34-18.07h13.61ZM362.63,119.16l16.2,25.2h-13.54l-10.66-18,7.99-7.2Z"/>
        <path class="cls-1" d="M403.09,121.54c0-1.68-.47-3.01-1.4-4-.94-.98-2.2-1.48-3.78-1.48s-2.94.4-4.07,1.19-1.91,2.2-2.34,4.21l-10.37-2.45c.67-3.46,2.45-6.22,5.33-8.28,2.88-2.06,6.94-3.1,12.17-3.1,3.5,0,6.49.52,8.96,1.55,2.47,1.03,4.37,2.57,5.69,4.61,1.32,2.04,1.98,4.55,1.98,7.52v13.18c0,1.87.84,2.81,2.52,2.81.86,0,1.56-.1,2.09-.29l-.72,6.98c-1.44.67-3.19,1.01-5.26,1.01-1.87,0-3.53-.3-4.97-.9-1.44-.6-2.57-1.51-3.38-2.74-.82-1.22-1.22-2.77-1.22-4.64v-.43l1.37-.5c0,2.06-.61,3.79-1.84,5.18-1.22,1.39-2.81,2.42-4.75,3.1-1.94.67-3.97,1.01-6.08,1.01-2.45,0-4.58-.38-6.41-1.15-1.83-.77-3.23-1.88-4.21-3.35-.98-1.46-1.48-3.28-1.48-5.44,0-2.59.78-4.74,2.34-6.44,1.56-1.7,4.02-2.89,7.38-3.56l13.61-2.81-.07,6.48-6.91,1.44c-1.44.29-2.51.71-3.2,1.26-.7.55-1.04,1.38-1.04,2.48s.38,1.85,1.15,2.38c.77.53,1.68.79,2.74.79.82,0,1.59-.12,2.34-.36.74-.24,1.4-.61,1.98-1.12.58-.5,1.03-1.14,1.37-1.91.33-.77.5-1.68.5-2.74v-9.5Z"/>
        <path class="cls-1" d="M424.69,144.36v-36h10.8l.5,7.78c.91-2.69,2.27-4.78,4.07-6.26,1.8-1.49,4.09-2.23,6.88-2.23.91,0,1.69.07,2.34.22.65.14,1.16.34,1.55.58l-1.22,10.08c-.48-.19-1.09-.35-1.84-.47-.74-.12-1.64-.18-2.7-.18-1.44,0-2.78.31-4.03.94-1.25.62-2.25,1.55-2.99,2.77-.75,1.22-1.12,2.77-1.12,4.64v18.14h-12.24Z"/>
      </g>
    </g>
  </g>
</svg>